# xmcd
#
# Track frame offsets: 
#        150
#        22786
#        42830
#        62954
#        86185
#        113959
#        151927
#        192055
#        215701
#
# Disc length: 3306 seconds
#
# Revision: 0
# Processed by: cddbd v1.5.2PL0 Copyright (c) Steve Scherf et al.
# Submitted via: ExactAudioCopy v0.99pb5
#
DISCID=750ce809
DTITLE=Eric Clapton  - God Hand Bless You - Disc 1 (05-10-01)-Dallas,T
DTITLE=exas
DYEAR=1900
DGENRE=
TTITLE0=Reptile
TTITLE1=Got You On My Mind
TTITLE2=Tears In Heaven
TTITLE3=Bell Bottom Blues
TTITLE4=Change The World
TTITLE5=My Father's Eyes
TTITLE6=River Of Tears
TTITLE7=Going Down Slow
TTITLE8=She's Gone
EXTD=
EXTT0=
EXTT1=
EXTT2=
EXTT3=
EXTT4=
EXTT5=
EXTT6=
EXTT7=
EXTT8=
PLAYORDER=
